<?xml version="1.0" encoding="UTF-8"?>
<svg version="1.1" viewBox="0 0 2048 634" width="1140" height="353" xmlns="http://www.w3.org/2000/svg">
<path transform="translate(329,212)" d="m0 0 2 1-8 9-5 10-1 3v15l4 13 5 10 9 12 4 5 8 7 7 7 16 12 15 9 25 12 29 11 31 9 29 6 12 2 13 1h19l21-2 14-3 17-6 13-7 12-9 9-9 10-14 8-16 4-13 2-11-1-14-4-13-4-7 1-2 8 9 10 15 6 14 4 18 1 11v14l-2 17-5 22-10 26-8 16-10 16-12 13-7 7-10 7-10 6-15 6-15 4-19 3h-17l-27-4-22-5-27-9-23-10-24-12-23-14-17-12-13-11-10-9-7-7-7-8-12-15-11-17-9-19-5-15-3-16v-15l3-15 5-12 8-11 6-7z" fill="#2B2A2A"/>
<path transform="translate(1478,216)" d="m0 0h26l13 28 11 22 11 23 17 35 16 33 12 25 6 12 19-39 11-23 14-29 11-23 14-29 13-28 4-7h25v213h-25l-1-156-18 37-13 28-21 43-13 28-10 20h-21l-8-16-17-35-13-28-15-31-13-28-8-16v-3h-2l1 2v155h-26z" fill="#2B2A2A"/>
<path transform="translate(441,182)" d="m0 0h41l36 2 22 3 24 5 22 7 18 8 14 8 11 9 7 7 4 7 5 11 1 6v15l-4 15-6 13-6 11-11 13-7 7-15 10-14 6-17 5-13 2h-40l-14-2v-1l14-2 15-5 11-6 10-9 7-9 4-13v-12l-3-13-8-16-10-13-9-10-13-13-17-13-13-8-17-9-24-8-14-3-15-2v-1l6-1z" fill="#2B2A2A"/>
<path transform="translate(845,213)" d="m0 0h26l13 2 17 5 16 8 13 9-2 4-11 12-1 2-5-2-11-7-13-5-13-3-18-1-18 3-15 6-11 7-11 10-5 5-9 13-6 14-3 12-1 7v16l3 16 6 16 7 12 11 12 10 8 15 8 13 4 12 2h10l15-2 15-5 11-6 9-7 9-12 7-16 3-16h-61l-1-7v-15h87v12l-2 20-4 15-7 16-10 14-7 8-13 10-16 8-15 5-10 2h-28l-19-4-19-8-14-9-10-9-10-10-7-10-8-15-5-15-3-16v-28l4-19 5-12 8-15 7-9 11-12 10-8 13-8 15-7 16-4z" fill="#2B2A2A"/>
<path transform="translate(990,216)" d="m0 0h124v23h-99l1 71h76v23h-77v73h102v23h-126l-1-21z" fill="#2B2A2A"/>
<path transform="translate(1319,216)" d="m0 0h124l-1 23h-98v72l12-1h64l1 1-1 22-76 1v72h102v23h-127z" fill="#2B2A2A"/>
<path transform="translate(398,192)" d="m0 0h26l16 3 19 7 19 10 11 8 11 9 21 21h-3l-13-5-11-2h-29l-26 4-24 8-16 8-11 8-8 7-6 9-3 7v10l-8-6-14-15-10-15-5-11-2-7-1-12 2-10 4-8 6-8 11-7 14-6 24-6z" fill="#2B2A2A"/>
<path transform="translate(1144,216)" d="m0 0h144v22l-1 1h-59v190h-25v-190h-59z" fill="#2B2A2A"/>
</svg>
